<svg width="130" height="64" viewBox="0 0 130 64" fill="none" xmlns="http://www.w3.org/2000/svg">
<path d="M13.0991 63.1342C10.7713 63.1393 8.48393 62.5264 6.47057 61.3581C4.45721 60.1898 2.79006 58.5079 1.63945 56.4844C0.506449 54.4751 -0.0586077 52.1955 0.00480682 49.8897C0.0682213 47.5839 0.757718 45.3387 1.99944 43.3948L25.5988 6.33583C26.8066 4.34412 28.5215 2.70871 30.5682 1.59662C32.6149 0.484542 34.9202 -0.0643527 37.2484 0.00600583C39.5749 0.0617581 41.8449 0.734628 43.8259 1.95576C45.8069 3.17689 47.428 4.90243 48.5231 6.95581C50.7231 11.1157 50.4481 16.1205 47.8131 20.0254L24.2288 57.0844C23.0328 58.9481 21.3857 60.4797 19.4402 61.5372C17.4946 62.5948 15.3135 63.1441 13.0991 63.1342V63.1342Z" fill="#F62B54"/>
<path d="M63.0758 63.1352C58.3158 63.1352 53.9357 60.5902 51.6357 56.5001C50.5052 54.4963 49.9414 52.2225 50.0048 49.9226C50.0682 47.6227 50.7565 45.3835 51.9957 43.445L75.551 6.46946C76.7411 4.44967 78.45 2.78505 80.5002 1.64825C82.5505 0.511456 84.8676 -0.0561252 87.2112 0.00437776C92.0112 0.109379 96.3613 2.79442 98.5613 6.99447C100.746 11.1945 100.426 16.2296 97.7113 20.1246L74.161 57.1001C72.9686 58.956 71.3281 60.4816 69.3908 61.5364C67.4534 62.5911 65.2817 63.141 63.0758 63.1352V63.1352Z" fill="#FFCC00"/>
<path d="M115 63.3704C123.284 63.3704 130 56.7956 130 48.6852C130 40.5748 123.284 34 115 34C106.716 34 100 40.5748 100 48.6852C100 56.7956 106.716 63.3704 115 63.3704Z" fill="#00CA72"/>
</svg>
